<?xml version="1.0" encoding="UTF-8" standalone="no"?>
<!-- Created with Inkscape (http://www.inkscape.org/) -->

<svg
   version="1.1"
   id="svg62"
   width="216.2"
   height="124"




   viewBox="0 0 216.19999 124"
   xmlns="http://www.w3.org/2000/svg"
   xmlns:svg="http://www.w3.org/2000/svg">
  <defs
     id="defs66" />
  <g
     id="g68">
    <path
       style="fill:#000000;stroke-width:0.16"
       d="m 36.821084,122.15891 c 0,-0.088 -0.306,-0.16034 -0.68,-0.16074 -1.23277,-0.002 -4.90223,-0.61768 -7.0654,-1.18677 C 16.265753,117.44145 5.8699528,107.61271 2.1547428,95.358914 c -0.5301,-1.7484 -0.93186,-3.50887 -1.27799001,-5.6 -0.40562,-2.45047 -0.40959,-8.67559 -0.007,-11.2 0.82526001,-5.17679 2.58709001,-10.08984 5.17915001,-14.44269 3.43495,-5.76832 8.9920502,-10.834639 15.4923312,-14.124129 6.71586,-3.39858 14.73114,-4.80068 21.81291,-3.8157 0.64843,0.0902 1.19827,0.14115 1.22187,0.11325 0.0236,-0.0279 0.12515,-1.31074 0.22566,-2.85074 0.22845,-3.50027 0.50702,-5.37641 1.23312,-8.305171 4.48931,-18.10786 19.42891,-31.6062057 37.90693,-34.24997267 12.30644,-1.76076 24.916516,1.63662797 34.906486,9.40444267 1.93906,1.50774 5.05197,4.52242 6.72283,6.5107 1.51605,1.80407 4.17266,5.68786 5.0128,7.32842 0.62981,1.22983 0.41536,1.18483 2.58194,0.54183 11.32746,-3.3618 24.32158,-1.01734 33.7759,6.09398 2.97853,2.24039 6.37391,5.78511 8.46351,8.835771 3.96496,5.78858 6.23258,12.4712 6.63747,19.560649 l 0.10735,1.87935 h 1.31238 c 9.1184,0 16.76165,3.1286 22.72131,9.30049 3.92874,4.06864 6.57595,8.83984 7.84506,14.13952 4.35877,18.201796 -8.17711,35.835226 -26.78448,37.676076 -2.272,0.22476 -150.423046,0.22862 -150.423046,0.004 z"
       id="path230" />
  </g>
</svg>
